<?xml version="1.0" standalone="no"?>
<!DOCTYPE svg PUBLIC "-//W3C//DTD SVG 20010904//EN"
 "http://www.w3.org/TR/2001/REC-SVG-20010904/DTD/svg10.dtd">
<svg version="1.0" xmlns="http://www.w3.org/2000/svg"
 width="495.000000pt" height="495.000000pt" viewBox="0 0 495.000000 495.000000"
 preserveAspectRatio="xMidYMid meet">
<metadata>
Created by potrace 1.14, written by Peter Selinger 2001-2017
</metadata>
<g transform="translate(0.000000,495.000000) scale(0.100000,-0.100000)"
fill="#000000" stroke="none">
<path d="M496 4671 c-22 -24 -24 -73 -4 -103 9 -13 34 -43 57 -68 102 -109
114 -127 106 -166 l-6 -36 -25 23 c-24 22 -24 22 -39 3 -12 -16 -26 -62 -30
-99 -3 -28 27 -103 50 -122 24 -21 24 -28 1 -24 -16 3 -94 -40 -100 -55 -4
-10 -2 -13 7 -8 9 5 9 4 0 -6 -6 -7 -9 -18 -7 -24 2 -6 -8 -19 -24 -28 -29
-18 -73 -93 -68 -118 4 -20 16 -51 27 -72 6 -13 5 -18 -4 -18 -6 0 -18 -9 -25
-20 -10 -16 -10 -27 2 -54 12 -29 72 -89 93 -92 47 -9 51 -15 39 -56 -16 -54
-4 -144 23 -169 24 -23 31 -24 31 -5 0 32 20 24 30 -11 16 -59 23 -65 78 -66
49 0 50 -1 42 -26 -12 -43 10 -129 34 -133 6 0 18 -2 26 -3 8 -1 29 4 46 11
31 12 32 11 44 -25 6 -20 20 -48 30 -61 l18 -24 50 26 c43 22 54 24 74 14 39
-20 101 -37 147 -40 38 -3 48 0 64 20 21 27 45 30 94 12 22 -8 37 -9 41 -3 4
6 30 28 57 50 28 21 54 46 59 53 6 11 10 12 16 2 11 -18 95 24 122 60 l20 28
30 -34 c26 -29 29 -39 24 -69 -7 -34 -7 -35 -31 -19 -38 25 -59 -3 -70 -91 -3
-24 17 -90 35 -116 24 -33 25 -39 3 -39 -30 0 -85 -39 -79 -55 3 -8 0 -15 -6
-15 -9 0 -9 -3 -1 -11 9 -9 4 -17 -20 -33 -18 -12 -43 -42 -56 -66 -24 -43
-24 -45 -8 -89 15 -41 15 -47 1 -63 -9 -9 -13 -22 -8 -29 4 -8 3 -10 -4 -5
-20 12 -13 -18 11 -52 28 -38 64 -67 94 -76 28 -9 31 -21 24 -81 -9 -68 0
-109 28 -142 l25 -28 9 35 c8 31 10 32 18 15 4 -11 8 -32 8 -47 1 -39 40 -62
91 -55 35 4 39 3 31 -12 -6 -10 -6 -23 -1 -31 5 -8 5 -19 0 -25 -13 -17 13
-78 39 -92 20 -9 32 -9 59 3 19 8 36 13 38 12 1 -2 11 -26 22 -53 19 -46 22
-50 53 -48 17 1 43 10 57 20 25 18 26 18 73 -5 27 -12 77 -25 112 -29 59 -5
65 -4 83 19 14 18 29 25 52 24 18 0 32 -4 32 -7 0 -21 36 -16 65 8 74 63 111
88 128 85 18 -3 75 27 103 55 13 14 19 11 49 -20 19 -20 43 -41 52 -46 10 -6
12 -11 6 -11 -7 0 -13 -8 -13 -18 0 -27 -10 -33 -28 -16 -13 14 -17 14 -31 -1
-11 -11 -16 -34 -16 -80 0 -57 3 -67 29 -94 l30 -31 -32 0 c-20 0 -40 -9 -57
-25 -26 -27 -33 -41 -14 -29 8 4 8 0 0 -15 -7 -11 -15 -21 -20 -21 -5 0 -21
-19 -36 -42 -26 -39 -27 -45 -17 -85 12 -43 7 -77 -9 -67 -5 3 -9 -2 -9 -11 0
-39 48 -94 102 -116 24 -10 27 -15 21 -38 -15 -52 -7 -121 15 -143 19 -19 22
-20 37 -4 21 21 23 20 18 -7 -6 -32 21 -57 62 -57 l33 0 0 -51 c1 -55 23 -93
51 -85 66 20 67 19 81 -24 8 -23 19 -44 26 -47 18 -6 84 24 84 39 0 8 3 9 8 2
12 -18 75 -43 125 -49 43 -6 50 -4 70 18 21 24 24 25 62 12 21 -8 42 -11 45
-7 3 4 25 23 50 42 25 19 48 38 51 43 3 4 13 5 21 2 20 -8 98 42 98 61 0 30
29 11 76 -49 26 -34 82 -102 124 -152 41 -49 85 -101 96 -115 66 -79 126 -146
209 -235 82 -89 129 -142 187 -214 36 -44 108 -21 139 43 l21 45 -21 27 c-11
14 -48 56 -81 93 -33 36 -68 75 -77 86 -148 169 -287 319 -415 445 l-118 116
35 17 c20 9 41 28 47 42 10 21 8 29 -10 48 -12 13 -22 26 -22 29 0 3 16 15 35
27 19 11 35 27 35 35 0 20 -33 76 -44 76 -6 0 5 16 24 35 31 32 33 37 20 60
-7 13 -22 27 -32 31 -19 6 -19 7 3 30 13 14 29 37 35 52 10 24 8 30 -18 58
-25 26 -27 34 -19 57 13 33 6 66 -16 82 -10 7 -29 22 -42 34 -13 11 -32 23
-42 26 -15 5 -17 10 -9 25 23 43 -1 139 -39 160 -11 5 -35 10 -53 10 -25 0
-34 5 -36 18 -6 56 -7 57 -58 60 -43 3 -103 -7 -148 -24 -9 -3 -16 -1 -16 5 0
6 -10 22 -22 36 -18 20 -30 25 -58 23 -28 -2 -35 0 -34 15 3 28 -68 23 -119
-10 -23 -15 -46 -26 -51 -25 -5 2 -26 5 -46 8 -44 6 -140 -30 -140 -53 0 -8 4
-12 8 -9 4 2 8 -4 8 -15 0 -10 -6 -19 -14 -19 -7 0 -10 -5 -6 -12 4 -7 3 -8
-5 -4 -6 4 -18 3 -25 -3 -10 -9 -20 -2 -41 29 -26 38 -27 42 -14 77 10 25 21
37 37 40 26 4 88 47 95 67 3 8 -6 30 -20 50 -28 42 -23 55 27 76 42 18 43 44
3 97 l-25 32 36 43 c20 23 36 44 36 47 0 10 -50 61 -60 61 -18 0 -11 18 20 52
39 42 40 83 2 123 -21 23 -27 36 -21 50 4 11 8 36 8 56 1 31 -5 42 -43 72 -24
20 -56 42 -70 49 -21 9 -26 16 -20 32 12 38 7 112 -11 150 -19 40 -37 51 -98
59 -21 3 -39 7 -40 8 -1 2 -8 19 -14 37 -8 24 -8 32 0 32 7 0 6 4 -2 9 -14 9
-141 8 -171 -1 -8 -3 -27 -8 -42 -13 -16 -4 -25 -12 -22 -19 3 -6 -4 0 -17 14
-12 14 -26 24 -31 22 -5 -1 -7 2 -3 7 7 13 -30 51 -51 51 -8 0 -24 -4 -34 -10
-15 -8 -20 -5 -28 20 -10 28 -13 29 -58 24 -42 -4 -104 -37 -124 -66 -3 -4
-24 -1 -45 7 -58 19 -136 2 -187 -42 -15 -14 -15 -18 -2 -38 14 -21 13 -23
-11 -29 -14 -4 -23 -11 -20 -16 4 -6 -1 -7 -11 -3 -14 5 -16 2 -12 -15 9 -33
-4 -26 -35 18 -36 51 -29 74 30 100 75 33 90 68 52 122 -12 16 -20 31 -18 32
2 2 23 15 46 29 23 15 40 32 39 39 -5 24 -29 68 -38 68 -14 0 -9 37 8 51 8 7
22 26 31 42 14 29 14 30 -21 66 l-36 37 24 23 c13 13 30 36 36 52 10 24 9 32
-9 57 -11 16 -27 34 -35 41 -12 10 -13 18 -6 32 6 10 12 32 14 49 3 26 -4 38
-37 70 -22 22 -55 46 -74 55 -29 14 -33 20 -26 38 14 38 6 112 -16 155 -20 40
-23 41 -81 48 -57 6 -60 8 -61 35 -2 49 -3 51 -26 60 -16 6 -23 5 -23 -4 0 -9
-2 -9 -8 -1 -11 18 -114 8 -161 -14 -37 -18 -41 -18 -46 -3 -3 9 -19 31 -35
50 -30 32 -39 34 -81 17 -12 -5 -18 0 -23 18 -6 23 -12 26 -47 26 -42 0 -88
-19 -122 -51 -20 -18 -38 -18 -92 1 -31 11 -128 -22 -161 -55 -10 -10 -10 -17
2 -33 14 -20 13 -22 -21 -36 -36 -15 -44 -33 -23 -54 9 -9 9 -12 -3 -12 -8 0
-22 15 -31 33 -18 38 -226 257 -244 257 -6 0 -19 -9 -28 -19z m564 -935 c0
-11 -19 -15 -25 -6 -3 5 1 10 9 10 9 0 16 -2 16 -4z m628 -1471 c-3 -3 -9 2
-12 12 -6 14 -5 15 5 6 7 -7 10 -15 7 -18z m2042 -805 c0 -5 -4 -10 -10 -10
-5 0 -10 5 -10 10 0 6 5 10 10 10 6 0 10 -4 10 -10z m-945 -71 c11 -17 -1 -21
-15 -4 -8 9 -8 15 -2 15 6 0 14 -5 17 -11z m340 -9 c3 -5 3 -15 -1 -21 -6 -11
-23 6 -24 24 0 10 18 9 25 -3z m385 -164 c0 -3 -4 -8 -10 -11 -5 -3 -10 -1
-10 4 0 6 5 11 10 11 6 0 10 -2 10 -4z m-426 -44 c3 -5 -1 -9 -9 -9 -8 0 -12
4 -9 9 3 4 7 8 9 8 2 0 6 -4 9 -8z"/>
</g>
</svg>
