<?xml version="1.0" standalone="no"?>
<!DOCTYPE svg PUBLIC "-//W3C//DTD SVG 20010904//EN"
 "http://www.w3.org/TR/2001/REC-SVG-20010904/DTD/svg10.dtd">
<svg version="1.0" xmlns="http://www.w3.org/2000/svg"
 width="1217.000000pt" height="1217.000000pt" viewBox="0 0 1217.000000 1217.000000"
 preserveAspectRatio="xMidYMid meet">
<metadata>
Created by potrace 1.14, written by Peter Selinger 2001-2017
</metadata>
<g transform="translate(0.000000,1217.000000) scale(0.100000,-0.100000)"
fill="#000000" stroke="none">
<path d="M6627 9504 c-1 -1 -101 -4 -222 -8 -121 -4 -233 -9 -250 -11 -16 -1
-79 -6 -140 -9 -60 -4 -132 -9 -160 -11 -27 -2 -88 -7 -135 -10 -47 -3 -121
-8 -165 -11 -110 -7 -217 -18 -565 -58 -118 -14 -242 -27 -275 -31 -33 -3 -78
-8 -100 -10 -22 -2 -67 -7 -100 -10 -33 -4 -80 -8 -105 -11 -51 -5 -258 -32
-310 -40 -56 -8 -509 -94 -575 -109 -33 -8 -73 -16 -90 -18 -247 -41 -980
-262 -1270 -385 -60 -25 -341 -169 -386 -197 -21 -14 -41 -25 -45 -25 -3 0
-111 -70 -239 -155 -129 -85 -236 -155 -238 -155 -3 0 -18 -11 -33 -24 -16
-13 -70 -58 -120 -100 -179 -148 -327 -327 -497 -600 -145 -231 -284 -613
-318 -871 -14 -107 -17 -387 -6 -500 22 -211 38 -345 48 -400 21 -118 162
-487 244 -640 23 -44 66 -125 95 -180 29 -55 75 -137 102 -181 26 -45 48 -84
48 -87 0 -14 137 -227 174 -272 23 -27 62 -77 86 -110 62 -84 177 -203 300
-308 58 -50 141 -125 185 -168 194 -187 245 -234 320 -299 116 -98 230 -172
425 -272 47 -24 101 -53 120 -64 19 -11 64 -36 100 -54 36 -19 119 -66 185
-106 295 -176 488 -249 995 -378 218 -55 574 -114 865 -143 100 -10 1231 -11
1305 -1 30 4 123 10 205 13 163 6 223 11 330 26 39 5 88 12 110 15 136 18 258
42 470 96 261 65 265 66 755 162 340 67 475 103 745 196 83 28 197 67 255 87
291 98 586 235 760 353 96 64 295 181 447 261 256 135 339 194 503 354 232
228 473 488 523 566 11 16 23 29 28 29 5 0 9 5 9 12 0 6 26 48 59 92 173 240
276 466 404 891 48 159 65 219 78 275 4 19 15 60 23 90 9 30 28 120 42 200 24
130 27 174 29 415 3 337 -6 488 -40 685 -34 197 -78 308 -199 513 -102 172
-200 285 -427 490 -35 33 -100 94 -144 136 -120 116 -300 266 -390 326 -282
186 -866 432 -1270 534 -102 25 -276 62 -365 77 -14 3 -70 13 -125 24 -55 10
-136 24 -180 30 -44 6 -107 15 -140 20 -68 11 -137 19 -210 25 -27 2 -81 6
-120 10 -38 3 -97 8 -130 11 -52 5 -1282 13 -1288 8z"/>
</g>
</svg>
